<svg id="Layer_1" data-name="Layer 1" xmlns="http://www.w3.org/2000/svg" viewBox="0 0 441.71 101.7"><defs><style>.cls-1{fill:#f0f1ee;}.cls-2{fill:#d3d3d3;}</style></defs><title>logo_grayscale</title><g id="Layer_2" data-name="Layer 2"><g id="Layer_1-2" data-name="Layer 1-2"><path class="cls-1" d="M68.46,58.6l-.58-.43A40.64,40.64,0,0,1,56.16,44.31c-.33-.64-.64-1.29-.94-2a40.27,40.27,0,0,1-2.06-5.66,2.1,2.1,0,0,1,.61-2.13,65.53,65.53,0,0,0,7.74-8.3A64.57,64.57,0,0,0,73.74.26a.21.21,0,0,0-.37-.18,65,65,0,0,1-20.45,15.6,64.2,64.2,0,0,1-14.25,5,64.23,64.23,0,0,1-7,1.14,14.1,14.1,0,0,0-2.52.49A40.54,40.54,0,1,0,52.38,100q1.59-.48,3.14-1.08a.21.21,0,0,0,0-.4A24.32,24.32,0,0,1,39.62,71.7,2.1,2.1,0,0,0,38,69.33,17.7,17.7,0,0,1,24.31,52.18a1.51,1.51,0,0,1,1.33-1.53,1.46,1.46,0,0,1,1.6,1.46,14.75,14.75,0,0,0,13.7,14.68h0A23.88,23.88,0,0,1,58.13,71l.74.55a7.62,7.62,0,0,0,2.44,1.27,8.25,8.25,0,0,0,4.48.06A8,8,0,0,0,71.51,67a8.14,8.14,0,0,0-2.07-7.66A7.4,7.4,0,0,0,68.46,58.6ZM44.58,45.54a.21.21,0,0,1-.35.13,7.88,7.88,0,0,0-7-1.88.21.21,0,0,1-.25-.28c.91-2.3,3.92-3.54,6.66-1.34l0,.06A4.79,4.79,0,0,1,44.58,45.54Z" transform="translate(-0.21 0)"/><path class="cls-2" d="M40.79,101.2a40.08,40.08,0,0,1-36.32-57A39.77,39.77,0,0,1,24.14,24.67,41.08,41.08,0,0,0,51.74,96.14a41.63,41.63,0,0,0,5.81-.41,40.77,40.77,0,0,0,5.08-1q-1.33.88-2.72,1.65a40.18,40.18,0,0,1-19.12,4.87Z" transform="translate(-0.21 0)"/><path class="cls-1" d="M115.47,75h26.77v9.4H105.89V18.65h9.58Z" transform="translate(-0.21 0)"/><path class="cls-1" d="M196.81,37.09A23,23,0,0,1,206.06,39a24.66,24.66,0,0,1,7.6,5.1,23.8,23.8,0,0,1,7,16.92V84.19h-9.22V79.85a25.36,25.36,0,0,1-6.71,3.64,23.84,23.84,0,0,1-29.82-13.22A23.06,23.06,0,0,1,173,61a23.44,23.44,0,0,1,1.88-9.31A23.78,23.78,0,0,1,187.56,39,23,23,0,0,1,196.81,37.09Zm0,38.5a13.87,13.87,0,0,0,5.69-1.17,14.94,14.94,0,0,0,7.75-7.79,13.91,13.91,0,0,0,1.2-5.63,14.12,14.12,0,0,0-1.16-5.72,14.93,14.93,0,0,0-7.75-7.79,14.39,14.39,0,0,0-11.37,0,14.92,14.92,0,0,0-7.75,7.79A14.09,14.09,0,0,0,182.26,61a13.87,13.87,0,0,0,1.16,5.63,14.93,14.93,0,0,0,7.75,7.79,13.86,13.86,0,0,0,5.69,1.17Z" transform="translate(-0.21 0)"/><path class="cls-1" d="M284.87,40.14a20.93,20.93,0,0,1,6.74,7.39,20.22,20.22,0,0,1,2.48,9.89v27h-9.22v-27A11.18,11.18,0,0,0,284,53a11.51,11.51,0,0,0-2.47-3.67,11.75,11.75,0,0,0-3.64-2.46,11,11,0,0,0-4.4-.9,11.3,11.3,0,0,0-4.45.9,11.08,11.08,0,0,0-3.64,2.46A11.91,11.91,0,0,0,262.94,53a11.18,11.18,0,0,0-.9,4.43v27h-9.22V36.73H262l.07,3.4a20.69,20.69,0,0,1,22.76,0Z" transform="translate(-0.21 0)"/><path class="cls-1" d="M335.82,75h26.77v9.4H326.24V18.65h9.58Z" transform="translate(-0.21 0)"/><path class="cls-1" d="M422.13,63.77h-18A14.55,14.55,0,0,0,406,68.3a14.21,14.21,0,0,0,3.18,3.63,14.55,14.55,0,0,0,4.21,2.37,14.2,14.2,0,0,0,4.92.85,13.87,13.87,0,0,0,5.86-1.25A14.89,14.89,0,0,0,429,70.41h10.83a15.91,15.91,0,0,1-1.3,2.55q-.76,1.21-1.66,2.37a23.78,23.78,0,0,1-8.06,6.58,22.74,22.74,0,0,1-10.48,2.46,23.21,23.21,0,0,1-9.22-1.84A23.59,23.59,0,0,1,396.48,70a24.08,24.08,0,0,1,0-18.44A23.59,23.59,0,0,1,409.06,39a23.25,23.25,0,0,1,9.22-1.84,22.76,22.76,0,0,1,10.48,2.46,23.38,23.38,0,0,1,8.06,6.67,23,23,0,0,1,5.1,14.51,16.53,16.53,0,0,1-.27,3H422.13Zm-3.85-17.46a14,14,0,0,0-7.83,2.26,14.57,14.57,0,0,0-5.24,6h26.15c-.3-.47-.58-.94-.85-1.42a12.44,12.44,0,0,0-5.86-5.36A14.16,14.16,0,0,0,418.28,46.31Z" transform="translate(-0.21 0)"/></g></g></svg>