<svg xmlns="http://www.w3.org/2000/svg" width="1280.003" height="294.693" viewBox="0 0 1280.003 294.693">
  <g id="Layer_2" data-name="Layer 2" transform="translate(-0.215 0.002)">
    <g id="Layer_1" data-name="Layer 1" transform="translate(0.214 -0.002)">
      <path id="Path_18" data-name="Path 18" d="M197.963,169.819l-1.681-1.246a117.769,117.769,0,0,1-33.963-40.164c-.956-1.855-1.855-3.738-2.724-5.651a116.7,116.7,0,0,1-5.97-16.4,6.086,6.086,0,0,1,1.768-6.173,189.9,189.9,0,0,0,22.429-24.052A187.115,187.115,0,0,0,213.264.757a.609.609,0,0,0-1.072-.522A188.361,188.361,0,0,1,152.93,45.443a186.043,186.043,0,0,1-41.295,14.489,186.122,186.122,0,0,1-20.285,3.3,40.861,40.861,0,0,0-7.3,1.42,117.479,117.479,0,1,0,76.417,221.976.609.609,0,0,0,0-1.159,70.476,70.476,0,0,1-46.076-77.692,6.086,6.086,0,0,0-4.695-6.868,51.292,51.292,0,0,1-39.672-49.7,4.376,4.376,0,0,1,3.854-4.434,4.231,4.231,0,0,1,4.637,4.231,42.744,42.744,0,0,0,39.7,42.541h0a69.2,69.2,0,0,1,49.814,12.2l2.144,1.594a22.081,22.081,0,0,0,7.071,3.68,23.908,23.908,0,0,0,12.982.174A23.183,23.183,0,0,0,206.8,194.306a23.589,23.589,0,0,0-6-22.2,21.444,21.444,0,0,0-2.84-2.289Zm-69.2-37.846a.609.609,0,0,1-1.014.377,22.835,22.835,0,0,0-20.285-5.448.609.609,0,0,1-.724-.811c2.637-6.665,11.36-10.258,19.3-3.883l.145.174a13.881,13.881,0,0,1,2.579,9.592Z" transform="translate(-0.197 0.002)" fill="#ffb633"/>
      <g id="Path_19" data-name="Path 19" transform="translate(-0.214 43.657)" fill="#304858">
        <path d="M 117.7915115356445 248.5327911376953 C 106.3693542480469 248.5327911376953 95.04360198974609 246.8408508300781 84.12885284423828 243.5039520263672 C 73.02032470703125 240.1077880859375 62.51485443115234 235.0589752197266 52.90425872802734 228.4977264404297 C 35.4196662902832 216.5608215332031 21.57960319519043 200.0494232177734 12.88022899627686 180.7485961914062 C 4.180853843688965 161.44775390625 0.9761661887168884 140.1427612304688 3.612603664398193 119.1368255615234 C 6.249041080474854 98.13085174560547 14.61932277679443 78.27857208251953 27.81854057312012 61.7261962890625 C 37.7091178894043 49.32305145263672 50.0106315612793 39.15032958984375 63.92538452148438 31.78133773803711 C 58.39918518066406 37.40940093994141 53.44461822509766 43.56806182861328 49.11454010009766 50.20000839233398 C 42.01123046875 61.07944869995117 36.74407196044922 72.98441314697266 33.45941543579102 85.58419799804688 C 30.17476081848145 98.18397521972656 28.9594783782959 111.1452255249023 29.84735298156738 124.1079177856445 C 30.75769805908203 137.3985443115234 33.86351013183594 150.3831329345703 39.07851028442383 162.7009735107422 C 43.74719619750977 173.7283782958984 49.99991607666016 183.9502868652344 57.66304016113281 193.0827026367188 C 65.13916778564453 201.9922637939453 73.86544799804688 209.7601623535156 83.59951019287109 216.1706085205078 C 93.28585052490234 222.5496063232422 103.8195114135742 227.4861297607422 114.9079132080078 230.8430023193359 C 126.1699752807617 234.2524719238281 137.8443450927734 235.9813537597656 149.6045379638672 235.9813537597656 C 149.6081237792969 235.9813537597656 149.6105194091797 235.9813537597656 149.6141052246094 235.9813537597656 C 155.2402954101562 235.9809112548828 160.9258270263672 235.5794525146484 166.5127868652344 234.7881011962891 L 166.5072021484375 234.7889099121094 C 169.3401031494141 234.3942108154297 172.1619262695312 233.8959503173828 174.9634704589844 233.2964630126953 C 174.2132415771484 233.7341003417969 173.4587860107422 234.1626281738281 172.7000885009766 234.5820159912109 C 164.226318359375 239.1841735839844 155.1997985839844 242.7081146240234 145.8713531494141 245.0558471679688 C 136.7043151855469 247.3629760742188 127.2568817138672 248.5327911376953 117.7915115356445 248.5327911376953 Z" stroke="none"/>
        <path d="M 117.7915344238281 246.0328063964844 C 127.0513381958008 246.0328063964844 136.2934722900391 244.8884429931641 145.2611999511719 242.6314697265625 C 150.0345458984375 241.4301300048828 154.7276916503906 239.9137268066406 159.3043823242188 238.0964202880859 C 156.0741729736328 238.3521118164062 152.8348693847656 238.4810791015625 149.6143035888672 238.4813385009766 L 149.6045074462891 238.4813385009766 C 137.5966644287109 238.4813385009766 125.6773681640625 236.7156372070312 114.1777038574219 233.2333068847656 C 102.8598022460938 229.8059997558594 92.10810089111328 224.7665710449219 82.22126770019531 218.2549743652344 C 72.28530120849609 211.7110748291016 63.37790298461914 203.7816009521484 55.74643325805664 194.6868743896484 C 47.92387008666992 185.3644104003906 41.54140090942383 174.9307403564453 36.77633666992188 163.6756744384766 C 31.45296859741211 151.101806640625 28.28256797790527 137.8467712402344 27.35320091247559 124.2787704467773 C 26.44683456420898 111.0461044311523 27.68733406066895 97.81520080566406 31.04026794433594 84.95356750488281 C 34.3931999206543 72.09190368652344 39.76996994018555 59.93930435180664 47.02123641967773 48.83327102661133 C 48.42165756225586 46.68838882446289 49.88586044311523 44.59226608276367 51.41250228881836 42.54625701904297 C 43.3462028503418 48.43470764160156 36.0615348815918 55.39905166625977 29.77316856384277 63.28490447998047 C 16.86070251464844 79.47763824462891 8.672301292419434 98.89856719970703 6.093134880065918 119.4481353759766 C 3.514001607894897 139.9976654052734 6.649068355560303 160.8397979736328 15.1594352722168 179.7212982177734 C 23.66976737976074 198.6027984619141 37.20916748046875 214.7554626464844 54.31386947631836 226.4329986572266 C 63.71576690673828 232.851806640625 73.99290466308594 237.7909088134766 84.85977172851562 241.1131744384766 C 95.53746795654297 244.3776092529297 106.617301940918 246.0328063964844 117.7915344238281 246.0328063964844 M 117.7915267944336 251.0327911376953 C 94.56186676025391 251.0327911376953 71.40389251708984 244.1546783447266 51.49466705322266 230.5624389648438 C 15.08520126342773 205.7053070068359 -4.357964992523193 162.5677337646484 1.132068276405334 118.8254699707031 C 6.622101783752441 75.08316802978516 36.12250137329102 38.08850479125977 77.54550170898438 23.00000381469727 C 35.43820190429688 55.69830322265625 20.59590148925781 112.6325378417969 41.38070297241211 161.7263336181641 C 59.98350524902344 205.6661834716797 102.9503021240234 233.4850769042969 149.6139068603516 233.4813385009766 C 155.0872650146484 233.4809112548828 160.6207580566406 233.0976867675781 166.1622009277344 232.3128051757812 L 166.1622009277344 232.3128356933594 C 174.0140075683594 231.2187957763672 181.7334289550781 229.3253326416016 189.2002410888672 226.6619720458984 C 184.3751373291016 230.4320068359375 179.2588653564453 233.8137664794922 173.8994750976562 236.7755432128906 C 156.3433532714844 246.3117828369141 137.043701171875 251.0327911376953 117.7915267944336 251.0327911376953 Z" stroke="none" fill="#ffb633"/>
      </g>
      <path id="Path_20" data-name="Path 20" d="M133.652,181.945h77.576v27.24H105.89V18.65h27.762Z" transform="translate(200.343 35.401)" fill="#ffb633"/>
      <path id="Path_21" data-name="Path 21" d="M242,37.09A66.651,66.651,0,0,1,268.8,42.625,71.462,71.462,0,0,1,290.828,57.4a68.969,68.969,0,0,1,20.285,49.032V173.58H284.394V161a73.49,73.49,0,0,1-19.445,10.548,69.09,69.09,0,0,1-86.414-38.31A66.825,66.825,0,0,1,173,106.378,67.926,67.926,0,0,1,178.448,79.4a68.911,68.911,0,0,1,36.745-36.774A66.651,66.651,0,0,1,242,37.09Zm0,111.568a40.194,40.194,0,0,0,16.489-3.39,43.294,43.294,0,0,0,22.458-22.574,40.309,40.309,0,0,0,3.477-16.315A40.919,40.919,0,0,0,281.062,89.8,43.265,43.265,0,0,0,258.6,67.228a41.7,41.7,0,0,0-32.949,0A43.236,43.236,0,0,0,203.2,89.8a40.831,40.831,0,0,0-3.362,16.576,40.193,40.193,0,0,0,3.362,16.315,43.265,43.265,0,0,0,22.459,22.574,40.164,40.164,0,0,0,16.489,3.39Z" transform="translate(327.709 70.398)" fill="#ffb633"/>
      <path id="Path_22" data-name="Path 22" d="M345.7,46.632a60.653,60.653,0,0,1,19.532,21.415,58.6,58.6,0,0,1,7.187,28.66V174.95H345.7V96.707A32.4,32.4,0,0,0,343.175,83.9a33.355,33.355,0,0,0-7.158-10.635,34.051,34.051,0,0,0-10.548-7.129,31.876,31.876,0,0,0-12.751-2.608,32.745,32.745,0,0,0-12.9,2.608,32.107,32.107,0,0,0-10.548,7.129A34.515,34.515,0,0,0,282.146,83.9a32.4,32.4,0,0,0-2.608,12.838v78.242H252.82V36.75h26.6l.2,9.853a59.957,59.957,0,0,1,65.955,0Z" transform="translate(479.197 69.694)" fill="#ffb633"/>
      <path id="Path_23" data-name="Path 23" d="M354,181.945h77.576v27.24H326.24V18.65H354Z" transform="translate(618.538 35.401)" fill="#ffb633"/>
      <path id="Path_24" data-name="Path 24" d="M474.293,114.312H422.131a42.164,42.164,0,0,0,5.419,13.127,41.18,41.18,0,0,0,9.215,10.519,42.164,42.164,0,0,0,12.2,6.868,41.15,41.15,0,0,0,14.258,2.463,40.193,40.193,0,0,0,16.981-3.622,43.148,43.148,0,0,0,13.881-10.114h31.384a46.1,46.1,0,0,1-3.767,7.39q-2.2,3.506-4.81,6.868a68.912,68.912,0,0,1-23.357,19.068,65.9,65.9,0,0,1-30.37,7.129,67.259,67.259,0,0,1-26.718-5.332,68.361,68.361,0,0,1-36.484-36.31,69.781,69.781,0,0,1,0-53.437,68.36,68.36,0,0,1,36.455-36.455,67.375,67.375,0,0,1,26.718-5.332,65.955,65.955,0,0,1,30.37,7.129A67.751,67.751,0,0,1,516.862,63.6a66.651,66.651,0,0,1,14.779,42.048,47.889,47.889,0,0,1-.782,8.694H474.293Zm-11.157-50.6a40.57,40.57,0,0,0-22.69,6.549,42.222,42.222,0,0,0-15.185,17.387H501.04c-.869-1.362-1.681-2.724-2.463-4.115A36.05,36.05,0,0,0,481.6,68a41.034,41.034,0,0,0-18.46-4.289Z" transform="translate(748.361 70.491)" fill="#ffb633"/>
    </g>
  </g>
</svg>
