<svg xmlns="http://www.w3.org/2000/svg" width="322.593" height="446.139" viewBox="0 0 322.593 446.139">
  <g id="Layer_2" data-name="Layer 2" transform="translate(-0.215 0.002)">
    <g id="LanLe" transform="translate(0.214 -0.002)">
      <g id="LanLe_logo" data-name="LanLe logo">
        <g id="logo">
          <g id="logo-2" data-name="logo">
            <path id="unicorn" d="M299.583,257.092l-2.545-1.886A178.291,178.291,0,0,1,245.622,194.4c-1.448-2.808-2.808-5.659-4.124-8.555a176.656,176.656,0,0,1-9.037-24.831,9.213,9.213,0,0,1,2.676-9.345,287.5,287.5,0,0,0,33.956-36.413A283.277,283.277,0,0,0,322.747,1.148a.921.921,0,0,0-1.623-.79A285.162,285.162,0,0,1,231.408,68.8a281.652,281.652,0,0,1-62.516,21.936,281.771,281.771,0,0,1-30.71,5,61.858,61.858,0,0,0-11.056,2.15A177.853,177.853,0,1,0,242.814,433.936a.921.921,0,0,0,0-1.755,106.694,106.694,0,0,1-69.755-117.618,9.213,9.213,0,0,0-7.107-10.4,77.652,77.652,0,0,1-60.06-75.239,6.625,6.625,0,0,1,5.835-6.712,6.405,6.405,0,0,1,7.019,6.405,64.71,64.71,0,0,0,60.1,64.4h0a104.764,104.764,0,0,1,75.414,18.47l3.246,2.413a33.431,33.431,0,0,0,10.7,5.572,36.194,36.194,0,0,0,19.654.263,35.1,35.1,0,0,0,25.094-25.577,35.711,35.711,0,0,0-9.081-33.605A32.471,32.471,0,0,0,299.583,257.092ZM194.819,199.8a.921.921,0,0,1-1.535.57,34.571,34.571,0,0,0-30.71-8.248.921.921,0,0,1-1.1-1.228c3.992-10.09,17.2-15.53,29.218-5.879l.219.263A21.015,21.015,0,0,1,194.819,199.8Z" transform="translate(-0.183 0.002)" fill="#ffb633"/>
            <g id="fur" transform="translate(-0.214 77.913)" fill="#304858">
              <path d="M 178.2156066894531 363.7212524414062 C 160.9944000244141 363.7212524414062 143.9185485839844 361.1702880859375 127.46240234375 356.1392517089844 C 110.7142562866211 351.0189514160156 94.87525177001953 343.4068908691406 80.38535308837891 333.5145263671875 C 54.02395248413086 315.5172729492188 33.15735244750977 290.6231384277344 20.04135322570801 261.5233764648438 C 6.925352573394775 232.423583984375 2.093652725219727 200.3021392822266 6.068552494049072 168.631591796875 C 10.04350280761719 136.9609832763672 22.66335296630859 107.0298385620117 42.56375122070312 82.07393646240234 C 56.51010131835938 64.58466339111328 73.63230895996094 50.03881454467773 92.9534912109375 39.13955307006836 C 85.83271789550781 46.77117919921875 79.37921142578125 55.00626373291016 73.64590454101562 63.78738784790039 C 62.84975433349609 80.32268524169922 54.84440231323242 98.41658782958984 49.85220336914062 117.5664367675781 C 44.86000442504883 136.7162933349609 43.0129508972168 156.4156341552734 44.36245346069336 176.1172332763672 C 45.74605178833008 196.3173828125 50.46645355224609 216.0522308349609 58.39250183105469 234.7736358642578 C 65.48810577392578 251.5335388183594 74.99150085449219 267.0691223144531 86.63860321044922 280.9489440917969 C 98.00125122070312 294.48974609375 111.2640533447266 306.2955017089844 126.0586547851562 316.0382385253906 C 140.7801971435547 325.7328491210938 156.7898559570312 333.2355346679688 173.6428527832031 338.3378295898438 C 190.7647552490234 343.5215759277344 208.5121002197266 346.1499328613281 226.3919525146484 346.1499328613281 C 234.9383087158203 346.1499328613281 243.5795593261719 345.539794921875 252.0755462646484 344.33642578125 L 252.0655059814453 344.3378295898438 C 254.8862609863281 343.9447937011719 257.7007446289062 343.4840393066406 260.5032653808594 342.9569091796875 C 247.8714599609375 349.7642517089844 234.4337310791016 354.9852294921875 220.5514068603516 358.4790954589844 C 206.7303009033203 361.9574890136719 192.4864959716797 363.7212524414062 178.2156066894531 363.7212524414062 Z" stroke="none"/>
              <path d="M 178.215576171875 359.22119140625 C 196.3386077880859 359.22119140625 214.3829040527344 356.2687377929688 231.5206146240234 350.578857421875 C 229.8085479736328 350.6261901855469 228.0985107421875 350.6499328613281 226.3919982910156 350.6499328613281 C 151.1695861816406 350.6499328613281 83.59926605224609 305.8544006347656 54.24857711791992 236.5279998779297 C 29.15933609008789 177.2670745849609 36.79757308959961 110.6423721313477 71.26879119873047 59.27671051025391 C 38.1529541015625 86.23269653320312 16.05582427978516 125.192741394043 10.53352642059326 169.1919403076172 C 2.605315685272217 232.3607788085938 30.34321022033691 293.9014587402344 82.92268371582031 329.798095703125 C 111.117317199707 349.0468444824219 144.0691070556641 359.22119140625 178.215576171875 359.22119140625 M 178.2155609130859 368.2212219238281 C 143.0479278564453 368.2212219238281 107.9888687133789 357.8084106445312 77.84810638427734 337.2310485839844 C 22.72736930847168 299.5994567871094 -6.707789421081543 234.2930450439453 1.603578925132751 168.0711517333984 C 9.91505241394043 101.8492584228516 54.57600021362305 45.84262466430664 117.286735534668 22.99999237060547 C 53.54000091552734 72.50225830078125 31.07010459899902 158.6956176757812 62.53642272949219 233.0191955566406 C 90.69938659667969 299.5401611328125 155.7474670410156 341.6499328613281 226.3919830322266 341.6499328613281 C 234.6781616210938 341.6499328613281 243.0552215576172 341.0691223144531 251.4444732666016 339.8808898925781 C 263.3313598632812 338.224609375 275.0178527832031 335.3580932617188 286.3219604492188 331.3259887695312 C 279.0171508789062 337.0335693359375 271.2716369628906 342.1531982421875 263.1580505371094 346.6369934082031 C 236.5796508789062 361.0740356445312 207.3616333007812 368.2212219238281 178.2155609130859 368.2212219238281 Z" stroke="none" fill="#ffb633"/>
            </g>
          </g>
        </g>
      </g>
    </g>
  </g>
</svg>
