<svg xmlns="http://www.w3.org/2000/svg" viewBox="0 0 444.63 101.83"><defs><style>.cls-1{fill:#ffb633;}</style></defs><title>logo_color_1</title><g id="Layer_2" data-name="Layer 2"><g id="LanLe"><path class="cls-1" d="M61.51,26.26A64.57,64.57,0,0,0,73.74.26a.21.21,0,0,0-.37-.18,65,65,0,0,1-20.45,15.6,64.2,64.2,0,0,1-14.25,5,64.23,64.23,0,0,1-7,1.14,14.1,14.1,0,0,0-2.52.49c-.78.23-1.55.49-2.3.77h0l-.15.05h0A40.57,40.57,0,1,0,60.15,96.77a40,40,0,0,0,5.28-3.49,40.16,40.16,0,0,1-7.95,2,40.85,40.85,0,0,1-5.68.4c-.65,0-1.29,0-1.93,0A24.28,24.28,0,0,1,39.62,71.7,2.1,2.1,0,0,0,38,69.33,17.7,17.7,0,0,1,24.31,52.18a1.51,1.51,0,0,1,1.33-1.53,1.46,1.46,0,0,1,1.6,1.46,14.75,14.75,0,0,0,13.7,14.68h0A23.88,23.88,0,0,1,58.13,71l.74.55a7.62,7.62,0,0,0,2.44,1.27,8.25,8.25,0,0,0,4.48.06,8,8,0,0,0,5.72-5.83,8.14,8.14,0,0,0-2.07-7.66,7.4,7.4,0,0,0-1-.82l-.58-.43A40.64,40.64,0,0,1,56.16,44.31c-.33-.64-.64-1.29-.94-1.95a40.26,40.26,0,0,1-2.06-5.66,2.1,2.1,0,0,1,.61-2.13A65.53,65.53,0,0,0,61.51,26.26ZM51.8,97.63q.84,0,1.67,0A38.57,38.57,0,0,1,16.73,30.92,42.61,42.61,0,0,0,51.8,97.63ZM44.58,45.54a.21.21,0,0,1-.35.13,7.88,7.88,0,0,0-7-1.88.21.21,0,0,1-.25-.28c.91-2.3,3.92-3.54,6.66-1.34l.05.06A4.79,4.79,0,0,1,44.58,45.54Z"/><polygon class="cls-1" points="117.18 18.57 107.6 18.57 107.6 84.28 143.95 84.28 143.95 74.88 117.18 74.88 117.18 18.57"/><path class="cls-1" d="M216.37,44a24.66,24.66,0,0,0-7.6-5.1,23.69,23.69,0,0,0-18.5,0A23.78,23.78,0,0,0,177.63,51.6a23.44,23.44,0,0,0-1.88,9.31,23.06,23.06,0,0,0,1.88,9.27A23.91,23.91,0,0,0,190.3,82.85a23.88,23.88,0,0,0,17.15.55,25.36,25.36,0,0,0,6.71-3.64v4.34h9.22V60.92a23.8,23.8,0,0,0-7-16.92ZM213,66.55a14.94,14.94,0,0,1-7.75,7.79,14.39,14.39,0,0,1-11.37,0,14.93,14.93,0,0,1-7.75-7.79A13.87,13.87,0,0,1,185,60.92a14.09,14.09,0,0,1,1.16-5.72,14.92,14.92,0,0,1,7.75-7.79,14.39,14.39,0,0,1,11.37,0A14.93,14.93,0,0,1,213,55.2a14.12,14.12,0,0,1,1.16,5.72A13.91,13.91,0,0,1,213,66.55Z"/><path class="cls-1" d="M287.59,40.05a20.69,20.69,0,0,0-22.76,0l-.07-3.4h-9.22V84.29h9.22v-27a11.18,11.18,0,0,1,.9-4.43,11.91,11.91,0,0,1,2.43-3.67,11.08,11.08,0,0,1,3.64-2.46,11.3,11.3,0,0,1,4.45-.9,11,11,0,0,1,4.4.9,11.75,11.75,0,0,1,3.64,2.46,11.51,11.51,0,0,1,2.47,3.67,11.18,11.18,0,0,1,.9,4.43v27h9.22v-27a20.22,20.22,0,0,0-2.48-9.89A20.93,20.93,0,0,0,287.59,40.05Z"/><polygon class="cls-1" points="338.53 18.57 328.95 18.57 328.95 84.28 365.31 84.28 365.31 74.88 338.53 74.88 338.53 18.57"/><path class="cls-1" d="M435.05,63.69h9.31a16.53,16.53,0,0,0,.27-3,23,23,0,0,0-5.1-14.51,23.38,23.38,0,0,0-8.06-6.67A22.76,22.76,0,0,0,421,37a23.25,23.25,0,0,0-9.22,1.84,23.59,23.59,0,0,0-12.58,12.58,24.08,24.08,0,0,0,0,18.44,23.59,23.59,0,0,0,12.58,12.58A23.21,23.21,0,0,0,421,84.29a22.74,22.74,0,0,0,10.48-2.46,23.78,23.78,0,0,0,8.06-6.58q.89-1.16,1.66-2.37a15.91,15.91,0,0,0,1.3-2.55H431.65a14.89,14.89,0,0,1-4.79,3.49A13.87,13.87,0,0,1,421,75.06a14.2,14.2,0,0,1-4.92-.85,14.55,14.55,0,0,1-4.21-2.37,14.21,14.21,0,0,1-3.18-3.63,14.55,14.55,0,0,1-1.84-4.52h28.21Zm-21.89-15.2A14,14,0,0,1,421,46.23a14.16,14.16,0,0,1,6.36,1.46,12.44,12.44,0,0,1,5.86,5.36c.27.47.55.94.85,1.42H407.92A14.57,14.57,0,0,1,413.16,48.49Z"/></g></g></svg>