<?xml version="1.0" encoding="utf-8"?>
<!-- Generator: Adobe Illustrator 21.1.0, SVG Export Plug-In . SVG Version: 6.00 Build 0)  -->
<svg version="1.1" id="Layer_1" xmlns="http://www.w3.org/2000/svg" xmlns:xlink="http://www.w3.org/1999/xlink" x="0px" y="0px"
	 viewBox="0 0 512 512" style="enable-background:new 0 0 512 512;" xml:space="preserve">
<style type="text/css">
	.st0{fill:#FFB633;}
</style>
<g>
	<path class="st0" d="M237.7,10.4L52,117.6c-11.1,6.4-18,18.3-18,31.2v214.4c0,12.9,6.9,24.7,18,31.2l185.7,107.2
		c11.1,6.4,24.9,6.4,36,0l185.7-107.2c11.1-6.4,18-18.3,18-31.2V148.8c0-12.9-6.9-24.7-18-31.2L273.7,10.4
		C262.6,4,248.8,4,237.7,10.4z M421.4,142.9l-162.1,93.6c-2.2,1.3-5,1.3-7.2,0L90,142.9c-4.8-2.8-4.8-9.7,0-12.5l162.1-93.6
		c2.2-1.3,5-1.3,7.2,0l162.1,93.6C426.2,133.2,426.2,140.1,421.4,142.9z M74.9,168.9l162.2,93.6c2.2,1.3,3.6,3.7,3.6,6.2v187.3
		c0,5.5-6,9-10.8,6.2L67.7,368.7c-2.2-1.3-3.6-3.7-3.6-6.2V175.2C64.1,169.6,70.1,166.1,74.9,168.9z M270.7,456.1V268.8
		c0-2.6,1.4-4.9,3.6-6.2l162.2-93.6c4.8-2.8,10.8,0.7,10.8,6.2v187.3c0,2.6-1.4,4.9-3.6,6.2l-162.2,93.6
		C276.7,465.1,270.7,461.6,270.7,456.1z"/>
</g>
</svg>
