<?xml version="1.0" encoding="utf-8"?>
<!-- Generator: Adobe Illustrator 21.1.0, SVG Export Plug-In . SVG Version: 6.00 Build 0)  -->
<svg version="1.1" id="Layer_1" xmlns="http://www.w3.org/2000/svg" xmlns:xlink="http://www.w3.org/1999/xlink" x="0px" y="0px"
	 viewBox="0 0 512 512" style="enable-background:new 0 0 512 512;" xml:space="preserve">
<style type="text/css">
	.st0{fill:#FFB633;}
</style>
<g>
	<path class="st0" d="M244.9,6.2L44.8,121.8c-6.7,3.9-10.8,11-10.8,18.7v231.1c0,7.7,4.1,14.8,10.8,18.7l200.1,115.5
		c6.7,3.9,14.9,3.9,21.6,0l200.1-115.5c6.7-3.9,10.8-11,10.8-18.7V140.5c0-7.7-4.1-14.8-10.8-18.7L266.5,6.2
		C259.8,2.4,251.6,2.4,244.9,6.2z M399.8,155.4l-133.3,77c-6.7,3.9-14.9,3.9-21.6,0l-133.3-77c-14.4-8.3-14.4-29.1,0-37.4l133.3-77
		c6.7-3.9,14.9-3.9,21.6,0l133.3,77C414.2,126.3,414.2,147,399.8,155.4z M96.5,181.4l133.4,77c6.7,3.9,10.8,11,10.8,18.7v154.1
		c0,16.6-18,27-32.4,18.7l-133.4-77c-6.7-3.9-10.8-11-10.8-18.7V200.1C64.1,183.5,82.1,173.1,96.5,181.4z M270.7,431.2V277.1
		c0-7.7,4.1-14.8,10.8-18.7l133.4-77c14.4-8.3,32.4,2.1,32.4,18.7v154.1c0,7.7-4.1,14.8-10.8,18.7l-133.4,77
		C288.7,458.2,270.7,447.8,270.7,431.2z"/>
</g>
</svg>
